<?xml version="1.0" encoding="UTF-8" standalone="no"?>
<!-- Created with Inkscape (http://www.inkscape.org/) -->

<svg
   width="100mm"
   height="100mm"
   viewBox="0 0 100 100"
   version="1.1"
   id="svg1"
   inkscape:version="1.3.2 (091e20ef0f, 2023-11-25)"
   sodipodi:docname="open_alert_viewer_notification.svg"
   xml:space="preserve"
   inkscape:export-filename="open_alert_viewer_notification.png"
   inkscape:export-xdpi="260.09601"
   inkscape:export-ydpi="260.09601"
   xmlns:inkscape="http://www.inkscape.org/namespaces/inkscape"
   xmlns:sodipodi="http://sodipodi.sourceforge.net/DTD/sodipodi-0.dtd"
   xmlns="http://www.w3.org/2000/svg"
   xmlns:svg="http://www.w3.org/2000/svg"><sodipodi:namedview
     id="namedview1"
     pagecolor="#505050"
     bordercolor="#eeeeee"
     borderopacity="1"
     inkscape:showpageshadow="0"
     inkscape:pageopacity="0"
     inkscape:pagecheckerboard="0"
     inkscape:deskcolor="#505050"
     inkscape:document-units="mm"
     inkscape:clip-to-page="true"
     inkscape:zoom="0.71713664"
     inkscape:cx="18.127647"
     inkscape:cy="202.89021"
     inkscape:window-width="1920"
     inkscape:window-height="1011"
     inkscape:window-x="0"
     inkscape:window-y="0"
     inkscape:window-maximized="1"
     inkscape:current-layer="layer1"
     showgrid="false" /><defs
     id="defs1" /><g
     inkscape:label="Layer 1"
     inkscape:groupmode="layer"
     id="layer1"><rect
       style="fill:none;stroke-width:7;stroke-linecap:round;stroke-linejoin:round;stroke-opacity:0.410338;paint-order:fill markers stroke"
       id="rect1"
       width="100"
       height="100"
       x="0"
       y="0" /><g
       style="fill:#000000"
       id="g1"
       transform="matrix(0.12500002,0,0,0.12500002,-10.000015,112.50001)"><path
         d="m 230,-200 -150,-150 45,-45 75,75 v -325 q 0,-65 45,-110 45,-45 110,-45 65,0 110,45 45,45 45,110 v 289 q 0,39 28,67 28,28 67,28 39,0 67,-28 28,-28 28,-67 v -324 l -75,75 -45,-45 150,-150 150,150 -45,45 -75,-75 v 324 q 0,65 -45,110 -45,45 -110,45 -65,0 -110,-45 -45,-45 -45,-110 v -289 q 0,-39 -28,-67 -28,-28 -67,-28 -39,0 -67,28 -28,28 -28,67 v 325 l 75,-75 45,45 z"
         id="path1"
         style="fill:#000000" /></g></g></svg>
