<?xml version="1.0" encoding="UTF-8" standalone="no"?>
<!-- Created with Inkscape (http://www.inkscape.org/) -->

<svg
   width="100mm"
   height="100mm"
   viewBox="0 0 100 100"
   version="1.1"
   id="svg1"
   inkscape:version="1.4 (e7c3feb100, 2024-10-09)"
   sodipodi:docname="open_alert_viewer_circle_full.svg"
   xml:space="preserve"
   inkscape:export-filename="open_alert_viewer_adaptive.png"
   inkscape:export-xdpi="260.09601"
   inkscape:export-ydpi="260.09601"
   xmlns:inkscape="http://www.inkscape.org/namespaces/inkscape"
   xmlns:sodipodi="http://sodipodi.sourceforge.net/DTD/sodipodi-0.dtd"
   xmlns="http://www.w3.org/2000/svg"
   xmlns:svg="http://www.w3.org/2000/svg"><sodipodi:namedview
     id="namedview1"
     pagecolor="#505050"
     bordercolor="#eeeeee"
     borderopacity="1"
     inkscape:showpageshadow="0"
     inkscape:pageopacity="0"
     inkscape:pagecheckerboard="0"
     inkscape:deskcolor="#505050"
     inkscape:document-units="mm"
     inkscape:clip-to-page="true"
     inkscape:zoom="0.71713664"
     inkscape:cx="16.733213"
     inkscape:cy="202.89021"
     inkscape:window-width="1920"
     inkscape:window-height="1011"
     inkscape:window-x="0"
     inkscape:window-y="0"
     inkscape:window-maximized="1"
     inkscape:current-layer="layer1"
     showgrid="false" /><defs
     id="defs1" /><g
     inkscape:label="Layer 1"
     inkscape:groupmode="layer"
     id="layer1"><g
       id="g2"
       transform="matrix(1.4999386,0,0,1.4999386,-24.99693,-24.996936)"><circle
         style="fill:#008080;fill-opacity:1;stroke:#fdfdfd;stroke-width:0;stroke-linecap:round;stroke-linejoin:round;paint-order:fill markers stroke"
         id="path2"
         cx="50"
         cy="50.000004"
         r="33.334698" /><path
         d="m 34.420511,68.695381 -9.34769,-9.347689 2.804307,-2.804307 4.673845,4.673844 V 40.963902 q 0,-4.050665 2.804307,-6.854972 2.804307,-2.804307 6.854972,-2.804307 4.050666,0 6.854972,2.804307 2.804307,2.804307 2.804307,6.854972 v 18.009882 q 0,2.430399 1.744902,4.175301 1.744902,1.744902 4.175302,1.744902 2.430399,0 4.175301,-1.744902 1.744902,-1.744902 1.744902,-4.175301 V 38.782775 l -4.673845,4.673844 -2.804307,-2.804307 9.34769,-9.347689 9.347689,9.347689 -2.804306,2.804307 -4.673845,-4.673844 v 20.191009 q 0,4.050665 -2.804307,6.854972 -2.804307,2.804307 -6.854972,2.804307 -4.050666,0 -6.854973,-2.804307 -2.804307,-2.804307 -2.804307,-6.854972 V 40.963902 q 0,-2.430399 -1.744902,-4.175301 -1.744902,-1.744902 -4.175301,-1.744902 -2.430399,0 -4.175301,1.744902 -1.744902,1.744902 -1.744902,4.175301 v 20.253327 l 4.673845,-4.673844 2.804306,2.804307 z"
         id="path1"
         style="fill:#e8eaed;stroke-width:0.0623179" /></g></g></svg>
